<svg width="724" height="724" viewBox="0 0 724 724" fill="none" xmlns="http://www.w3.org/2000/svg">
<path d="M516.558 220.267C488.131 207.183 457.648 197.544 425.776 192.023C425.196 191.917 424.616 192.183 424.317 192.715C420.396 199.71 416.054 208.834 413.013 216.006C378.733 210.858 344.628 210.858 311.05 216.006C308.009 208.675 303.509 199.71 299.571 192.715C299.272 192.201 298.692 191.934 298.111 192.023C266.257 197.526 235.774 207.166 207.33 220.267C207.083 220.374 206.872 220.551 206.732 220.782C148.912 307.431 133.073 391.95 140.843 475.421C140.878 475.829 141.107 476.22 141.423 476.468C179.571 504.57 216.524 521.63 252.791 532.938C253.371 533.116 253.986 532.903 254.356 532.423C262.935 520.672 270.582 508.28 277.139 495.25C277.526 494.487 277.156 493.581 276.365 493.279C264.236 488.664 252.685 483.036 241.575 476.646C240.696 476.131 240.626 474.87 241.434 474.266C243.772 472.509 246.111 470.681 248.343 468.834C248.747 468.497 249.31 468.426 249.785 468.639C322.776 502.067 401.797 502.067 473.927 468.639C474.401 468.408 474.964 468.48 475.386 468.817C477.619 470.663 479.957 472.509 482.313 474.266C483.121 474.87 483.068 476.131 482.189 476.646C471.079 483.16 459.529 488.664 447.381 493.262C446.59 493.564 446.239 494.487 446.626 495.25C453.323 508.262 460.971 520.653 469.391 532.405C469.743 532.903 470.375 533.116 470.956 532.938C507.399 521.63 544.351 504.57 582.499 476.468C582.833 476.22 583.044 475.847 583.08 475.438C592.379 378.937 567.504 295.111 517.138 220.799C517.015 220.551 516.804 220.374 516.558 220.267ZM288.039 424.596C266.064 424.596 247.957 404.358 247.957 379.505C247.957 354.652 265.712 334.414 288.039 334.414C310.54 334.414 328.472 354.829 328.12 379.505C328.12 404.358 310.365 424.596 288.039 424.596ZM436.236 424.596C414.261 424.596 396.154 404.358 396.154 379.505C396.154 354.652 413.909 334.414 436.236 334.414C458.738 334.414 476.669 354.829 476.318 379.505C476.318 404.358 458.738 424.596 436.236 424.596Z" fill="white"/>
</svg>
